#define desk_toggled_width 16
#define desk_toggled_height 16
static unsigned char desk_toggled_bits[] = {
   0x00, 0x00, 0x00, 0x00, 0x20, 0x00, 0x70, 0x00, 0xf8, 0x00, 0xfc, 0x03,
   0xf8, 0x01, 0xf0, 0x00, 0x60, 0x01, 0x20, 0x02, 0x00, 0x04, 0x00, 0x08,
   0x00, 0x10, 0x00, 0x20, 0x00, 0x00, 0x00, 0x00 };
