#define desk_width 16
#define desk_height 16
static unsigned char desk_bits[] = {
   0xff, 0xff, 0xff, 0xff, 0x3f, 0xfc, 0x3f, 0xfc, 0x3f, 0xfc, 0x3f, 0xfc,
   0x03, 0xc0, 0x03, 0xc0, 0x03, 0xc0, 0x03, 0xc0, 0x3f, 0xfc, 0x3f, 0xfc,
   0x3f, 0xfc, 0x3f, 0xfc, 0xff, 0xff, 0xff, 0xff };
